<?xml version="1.0"?>
<svg xmlns="http://www.w3.org/2000/svg" xmlns:xlink="http://www.w3.org/1999/xlink" xmlns:svgjs="http://svgjs.com/svgjs" version="1.1" width="512" height="512" x="0" y="0" viewBox="0 0 511.991 511.991" style="enable-background:new 0 0 512 512" xml:space="preserve" class=""><g>
<g xmlns="http://www.w3.org/2000/svg" transform="translate(0 -1)">
	<g>
		<g>
			<path d="M121.563,192.031l-94.976,12.654c3.31,22.126,3.529,44.599,0.658,66.779c-1.198,5.961-2.56,11.712-3.968,17.371     c29.047-1.125,161.152-3.145,229.065,47.79c46.912,35.182,89.317,12.736,110.546-3.895c-16.329-2.249-31.589-9.426-43.739-20.562     c-25.335-23.342-70.72-70.162-89.984-121.527C206.693,130.756,208,54.056,209.6,23.857     c-20.078,3.383-53.989,15.945-54.153,62.738l5.559,55.589C163.557,166.76,146.057,188.877,121.563,192.031z M238.446,258.18     c0.466-1.106,1.115-2.13,1.92-3.017c3.666-3.383,9.317-3.383,12.983,0c0.805,0.887,1.454,1.911,1.92,3.017     c0.978,2.213,0.978,4.736,0,6.949c-0.466,1.106-1.115,2.13-1.92,3.017c-0.448,0.411-0.942,0.777-1.463,1.097     c-0.466,0.366-0.987,0.64-1.554,0.823c-0.521,0.265-1.079,0.448-1.646,0.549c-0.603,0.101-1.216,0.165-1.829,0.183     c-2.432,0.027-4.773-0.933-6.491-2.651s-2.679-4.059-2.651-6.491C237.723,260.456,237.97,259.277,238.446,258.18z      M212.937,218.591c3.666-3.383,9.317-3.383,12.983,0c0.823,0.878,1.481,1.893,1.92,3.017c0.466,1.097,0.722,2.286,0.731,3.474     c0,5.047-4.096,9.143-9.143,9.143s-9.143-4.096-9.143-9.143c0.009-1.198,0.256-2.377,0.731-3.474     C211.456,220.493,212.105,219.469,212.937,218.591z M207.634,182.02c0.366,0.457,0.731,0.914,1.097,1.371     c0.347,0.512,0.622,1.061,0.823,1.646c0.265,0.521,0.448,1.079,0.549,1.646c0.11,0.603,0.165,1.216,0.183,1.829     c-0.037,2.423-0.987,4.736-2.651,6.491c-0.878,0.823-1.902,1.472-3.017,1.92c-1.088,0.512-2.277,0.759-3.474,0.731     c-2.423-0.037-4.736-0.978-6.491-2.651c-0.805-0.887-1.463-1.911-1.92-3.017c-0.466-1.097-0.713-2.277-0.731-3.474     c0.037-2.423,0.978-4.736,2.651-6.491c2.624-2.597,6.555-3.355,9.966-1.92C205.723,180.566,206.747,181.215,207.634,182.02z      M183.589,148.465c0.841-2.295,2.642-4.096,4.937-4.937c1.664-0.731,3.52-0.914,5.303-0.549c0.576,0.101,1.125,0.283,1.646,0.549     c0.585,0.201,1.134,0.475,1.646,0.823c0.457,0.366,0.914,0.731,1.371,1.097c0.805,0.887,1.454,1.911,1.92,3.017     c0.466,1.097,0.722,2.286,0.731,3.474c-0.018,0.613-0.082,1.225-0.183,1.829c-0.101,0.576-0.283,1.125-0.549,1.646     c-0.201,0.585-0.475,1.134-0.823,1.646c-0.366,0.457-0.731,0.914-1.097,1.371c-0.457,0.366-0.914,0.731-1.371,1.097     c-0.512,0.347-1.061,0.622-1.646,0.823c-0.521,0.265-1.079,0.448-1.646,0.549c-0.603,0.11-1.216,0.165-1.829,0.183     c-1.198-0.018-2.377-0.265-3.474-0.731c-1.106-0.466-2.121-1.115-3.017-1.92c-0.366-0.457-0.731-0.914-1.097-1.371     c-0.347-0.512-0.622-1.061-0.823-1.646c-0.265-0.521-0.448-1.07-0.549-1.646c-0.11-0.603-0.165-1.216-0.183-1.829     C182.866,150.742,183.113,149.563,183.589,148.465z" fill="#ffffff" data-original="#000000" style=""/>
			<path d="M24.293,186.545l94.857-12.635c14.693-1.893,25.189-15.159,23.662-29.897l-4.69-46.857L30.693,110.577     c-5.029,0.613-9.573,3.301-12.553,7.397c-2.971,4.105-4.105,9.262-3.127,14.226C18.322,149.005,21.669,167.848,24.293,186.545z" fill="#ffffff" data-original="#000000" style=""/>
			<path d="M503.214,417.384C458.213,445.828,354.249,452.429,320,452.429c-17.792-0.549-35.41-3.685-52.297-9.307     c-29.861-10.03-61.614-13.12-92.855-9.042c-63.506,7.918-144.987-16.823-170.249-25.234L0,418.033v48     c5.778,3.182,11.913,5.65,18.286,7.351v-2.688c0-5.047,4.096-9.143,9.143-9.143c5.047,0,9.143,4.096,9.143,9.143v6.83     c5.394,0.942,11.493,1.765,18.286,2.441v-0.128c0-5.047,4.096-9.143,9.143-9.143s9.143,4.096,9.143,9.143v1.435     c5.678,0.247,11.803,0.366,18.286,0.375v-1.81c0-5.047,4.096-9.143,9.143-9.143c5.047,0,9.143,4.096,9.143,9.143v1.527     c4.919-0.174,10.021-0.402,15.351-0.722c1.618-0.073,2.907-1.39,2.935-3.017c-0.055-14.016,10.514-25.792,24.457-27.264     c20.16-2.322,40.503-2.578,60.709-0.75c13.943,1.509,24.521,13.275,24.549,27.301v2.45c-0.027,1.399,0.942,2.633,2.304,2.935     c4.041,0.85,9.792,1.92,16.759,2.99c1.445-3.328,4.727-5.477,8.357-5.486c4.462,0.037,8.229,3.328,8.859,7.744     c5.641,0.603,11.941,1.115,18.569,1.554v-0.128c0-5.047,4.096-9.143,9.143-9.143s9.143,4.096,9.143,9.143v0.969     c5.851,0.155,11.904,0.238,18.286,0.165v-1.134c0-5.047,4.096-9.143,9.143-9.143c5.047,0,9.143,4.096,9.143,9.143v0.622     c5.952-0.274,12.087-0.677,18.395-1.198c0.192-4.462,3.639-8.11,8.082-8.558s8.549,2.441,9.627,6.775     c6.107-0.713,12.379-1.582,18.752-2.56v-2.981c-0.018-5.019,4.014-9.106,9.033-9.161c5.019-0.046,9.134,3.959,9.216,8.978     c6.007-1.134,12.123-2.432,18.322-3.822v-5.138c0-5.047,4.096-9.143,9.143-9.143c5.047,0,9.143,4.096,9.143,9.143v0.677     c6.034-1.582,12.114-3.255,18.286-5.102v-4.718c0-2.423,0.96-4.754,2.679-6.464c1.719-1.719,4.041-2.679,6.464-2.679     c4.645,0.027,8.512,3.566,8.951,8.192c11.081-3.803,18.514-14.235,18.478-25.957v-3.063     C511.982,426.491,508.645,420.63,503.214,417.384z" fill="#ffffff" data-original="#000000" style=""/>
			<path d="M172.581,415.94c9.92-1.271,19.913-1.92,29.915-1.938c23.845,0.311,47.497,4.197,70.19,11.529     c15.269,5.147,31.214,8.046,47.314,8.613c50.944,0,139.109-10.258,173.714-32.201v-22.619     c-0.037-25.225-20.489-45.659-45.714-45.678h-58.971c-8.082,8.274-41.801,39.808-85.851,39.808     c-22.491-0.347-44.233-8.155-61.806-22.199c-69.586-52.187-221.038-43.977-222.546-43.904c-0.128,0.009-0.238-0.055-0.366-0.046     c-0.119,0.448-0.247,0.923-0.366,1.371c-7.744,28.544-14.491,53.413-10.03,82.03C28.928,397.718,111.488,423.583,172.581,415.94z     " fill="#ffffff" data-original="#000000" style=""/>
		</g>
	</g>
</g>
<g xmlns="http://www.w3.org/2000/svg">
</g>
<g xmlns="http://www.w3.org/2000/svg">
</g>
<g xmlns="http://www.w3.org/2000/svg">
</g>
<g xmlns="http://www.w3.org/2000/svg">
</g>
<g xmlns="http://www.w3.org/2000/svg">
</g>
<g xmlns="http://www.w3.org/2000/svg">
</g>
<g xmlns="http://www.w3.org/2000/svg">
</g>
<g xmlns="http://www.w3.org/2000/svg">
</g>
<g xmlns="http://www.w3.org/2000/svg">
</g>
<g xmlns="http://www.w3.org/2000/svg">
</g>
<g xmlns="http://www.w3.org/2000/svg">
</g>
<g xmlns="http://www.w3.org/2000/svg">
</g>
<g xmlns="http://www.w3.org/2000/svg">
</g>
<g xmlns="http://www.w3.org/2000/svg">
</g>
<g xmlns="http://www.w3.org/2000/svg">
</g>
</g></svg>
